<svg xmlns="http://www.w3.org/2000/svg" xmlns:xlink="http://www.w3.org/1999/xlink" xmlns:lucid="lucid" width="2881" height="1381.68"><g transform="translate(20.5 -59.5)" lucid:page-tab-id="0_0"><path d="M0 0h3000v1500H0z" fill="#fff"/><path d="M1100 120c0 22.1-17.9 40-40 40s-40-17.9-40-40 17.9-40 40-40 40 17.9 40 40z" stroke="#fc9432" fill="#fff"/><use xlink:href="#a" transform="matrix(1,0,0,1,1025,85) translate(21.419753086419753 39.65277777777778)"/><path d="M1920 400c0 22.1-17.9 40-40 40s-40-17.9-40-40 17.9-40 40-40 40 17.9 40 40z" stroke="#fc9432" fill="#fff"/><use xlink:href="#b" transform="matrix(1,0,0,1,1845,365) translate(20.185185185185187 39.65277777777778)"/><path d="M1480 720c0 22.1-17.9 40-40 40s-40-17.9-40-40 17.9-40 40-40 40 17.9 40 40z" stroke="#fc9432" fill="#fff"/><use xlink:href="#c" transform="matrix(1,0,0,1,1405,685) translate(20.185185185185187 39.65277777777778)"/><path d="M1820 860c0 22.1-17.9 40-40 40s-40-17.9-40-40 17.9-40 40-40 40 17.9 40 40z" stroke="#fc9432" fill="#fff"/><use xlink:href="#d" transform="matrix(1,0,0,1,1745,825) translate(21.419753086419753 39.65277777777778)"/><path d="M580 720c0 22.1-17.9 40-40 40s-40-17.9-40-40 17.9-40 40-40 40 17.9 40 40z" stroke="#fc9432" fill="#fff"/><use xlink:href="#e" transform="matrix(1,0,0,1,505,685) translate(21.419753086419753 39.65277777777778)"/><path d="M280 400c0 22.1-17.9 40-40 40s-40-17.9-40-40 17.9-40 40-40 40 17.9 40 40z" stroke="#fc9432" fill="#fff"/><use xlink:href="#f" transform="matrix(1,0,0,1,205,365) translate(21.419753086419753 39.65277777777778)"/><path d="M2620 560.34c0 22.1-17.9 40-40 40s-40-17.9-40-40 17.9-40 40-40 40 17.9 40 40z" stroke="#fc9432" fill="#fff"/><use xlink:href="#g" transform="matrix(1,0,0,1,2545,525.3399800085509) translate(20.185185185185187 39.65277777777778)"/><path d="M0 538.8a6.67 6.67 0 0 1 5.97-6.64l108.06-11.52A5.4 5.4 0 0 1 120 526v65.07a6 6 0 0 1-6 6H6a6 6 0 0 1-6-6z" stroke="#000" fill="#fff"/><use xlink:href="#h" transform="matrix(1,0,0,1,5,537.8444444444444) translate(42.0679012345679 31.52777777777778)"/><path d="M1160.48 524.84a10.44 10.44 0 0 1 9.02-5.18h58.5a10.44 10.44 0 0 1 9.03 5.18l17.46 29.98a10.3 10.3 0 0 1 0 10.36l-17.47 29.98a10.44 10.44 0 0 1-9.02 5.18h-58.5a10.44 10.44 0 0 1-9.02-5.18l-17.46-29.98a10.3 10.3 0 0 1 0-10.36z" stroke="#635dff" fill="#fff"/><use xlink:href="#i" transform="matrix(1,0,0,1,1145,524.660019991449) translate(40.42475308641975 39.96527777777778)"/><path d="M160 699.4a6.7 6.7 0 0 1 5.96-6.67l108.08-12.06A5.37 5.37 0 0 1 280 686v68.68a6 6 0 0 1-6 6H166a6 6 0 0 1-6-6z" stroke="#000" fill="#fff"/><use xlink:href="#j" transform="matrix(1,0,0,1,165,698.4466600028503) translate(42.0679012345679 32.27777777777778)"/><path d="M2537.34 825.38A9.67 9.67 0 0 1 2546 820h48a9.67 9.67 0 0 1 8.66 5.38l14.68 29.58a12.1 12.1 0 0 1 0 10.76l-14.68 29.58a9.67 9.67 0 0 1-8.66 5.38h-48a9.67 9.67 0 0 1-8.66-5.38l-14.68-29.58a12.1 12.1 0 0 1 0-10.76z" stroke="#635dff" fill="#fff"/><use xlink:href="#k" transform="matrix(1,0,0,1,2525,825) translate(31.424753086419756 39.96527777777778)"/><path d="M440 1058.7a6.7 6.7 0 0 1 5.96-6.65L554.04 1040a5.37 5.37 0 0 1 5.96 5.32V1114a6 6 0 0 1-6 6H446a6 6 0 0 1-6-6z" stroke="#000" fill="#fff"/><use xlink:href="#l" transform="matrix(1,0,0,1,445,1057.7666999857483) translate(42.0679012345679 32.27777777777778)"/><path d="M1100 1219.4a6.7 6.7 0 0 1 5.96-6.67l108.08-12.06a5.37 5.37 0 0 1 5.96 5.33v68.68a6 6 0 0 1-6 6h-108a6 6 0 0 1-6-6z" stroke="#000" fill="#fff"/><use xlink:href="#m" transform="matrix(1,0,0,1,1105,1218.4466600028504) translate(42.0679012345679 32.27777777777778)"/><path d="M1157.34 845.38A9.67 9.67 0 0 1 1166 840h48a9.67 9.67 0 0 1 8.66 5.38l14.67 29.58a12.1 12.1 0 0 1 0 10.76l-14.66 29.58a9.67 9.67 0 0 1-8.67 5.38h-48a9.67 9.67 0 0 1-8.66-5.38l-14.67-29.58a12.1 12.1 0 0 1 0-10.76z" stroke="#635dff" fill="#fff"/><use xlink:href="#n" transform="matrix(1,0,0,1,1145,845) translate(31.424753086419756 39.96527777777778)"/><path d="M680 1058.7a6.7 6.7 0 0 1 5.96-6.65L794.04 1040a5.37 5.37 0 0 1 5.96 5.32V1114a6 6 0 0 1-6 6H686a6 6 0 0 1-6-6z" stroke="#000" fill="#fff"/><use xlink:href="#o" transform="matrix(1,0,0,1,685,1057.7666999857483) translate(42.0679012345679 32.27777777777778)"/><path d="M1240 1359.4a6.7 6.7 0 0 1 5.96-6.67l108.08-12.06a5.37 5.37 0 0 1 5.96 5.33v68.68a6 6 0 0 1-6 6h-108a6 6 0 0 1-6-6z" stroke="#000" fill="#fff"/><use xlink:href="#l" transform="matrix(1,0,0,1,1245,1358.4466600028504) translate(42.0679012345679 32.27777777777778)"/><path d="M980 699.05a6.7 6.7 0 0 1 5.96-6.66l108.08-12.07a5.37 5.37 0 0 1 5.96 5.33v68.68a6 6 0 0 1-6 6H986a6 6 0 0 1-6-6z" stroke="#000" fill="#fff"/><use xlink:href="#p" transform="matrix(1,0,0,1,985,698.1066799942993) translate(42.0679012345679 32.27777777777778)"/><path d="M2377.34 685.38A9.67 9.67 0 0 1 2386 680h48a9.67 9.67 0 0 1 8.66 5.38l14.68 29.58a12.1 12.1 0 0 1 0 10.76l-14.68 29.58a9.67 9.67 0 0 1-8.66 5.38h-48a9.67 9.67 0 0 1-8.66-5.38l-14.68-29.58a12.1 12.1 0 0 1 0-10.76z" stroke="#635dff" fill="#fff"/><use xlink:href="#q" transform="matrix(1,0,0,1,2365,685) translate(31.424753086419756 39.96527777777778)"/><path d="M1450 1359.4a6.7 6.7 0 0 1 5.96-6.67l108.08-12.06a5.37 5.37 0 0 1 5.96 5.33v68.68a6 6 0 0 1-6 6h-108a6 6 0 0 1-6-6z" stroke="#000" fill="#fff"/><use xlink:href="#o" transform="matrix(1,0,0,1,1455,1358.4466600028504) translate(42.0679012345679 32.27777777777778)"/><path d="M360 859.4a6.7 6.7 0 0 1 5.96-6.67l108.08-12.06A5.37 5.37 0 0 1 480 846v68.68a6 6 0 0 1-6 6H366a6 6 0 0 1-6-6z" stroke="#000" fill="#fff"/><use xlink:href="#m" transform="matrix(1,0,0,1,365,858.4466600028503) translate(42.0679012345679 32.27777777777778)"/><path d="M597.34 845.38A9.67 9.67 0 0 1 606 840h48a9.67 9.67 0 0 1 8.66 5.38l14.68 29.58a12.1 12.1 0 0 1 0 10.76l-14.68 29.58a9.67 9.67 0 0 1-8.66 5.38h-48a9.67 9.67 0 0 1-8.66-5.38l-14.68-29.58a12.1 12.1 0 0 1 0-10.76z" stroke="#635dff" fill="#fff"/><use xlink:href="#k" transform="matrix(1,0,0,1,585,845) translate(31.424753086419756 39.96527777777778)"/><path d="M2720 698.7a6.7 6.7 0 0 1 5.96-6.65L2834.04 680a5.37 5.37 0 0 1 5.96 5.32V754a6 6 0 0 1-6 6h-108a6 6 0 0 1-6-6z" stroke="#000" fill="#fff"/><use xlink:href="#r" transform="matrix(1,0,0,1,2725,697.7666999857483) translate(35.89506172839506 32.27777777777778)"/><path d="M342.97 521.57a10.44 10.44 0 0 1 9.02-5.18h58.5a10.44 10.44 0 0 1 9.02 5.17l17.46 29.97a10.3 10.3 0 0 1 0 10.37l-17.46 29.98a10.44 10.44 0 0 1-9.02 5.2H352a10.44 10.44 0 0 1-9.03-5.2L325.5 561.9a10.3 10.3 0 0 1 0-10.36z" stroke="#635dff" fill="#fff"/><use xlink:href="#n" transform="matrix(1,0,0,1,327.4892466494289,521.3867066495646) translate(40.42475308641975 39.96527777777778)"/><path d="M1367.34 1205.38a9.67 9.67 0 0 1 8.66-5.38h48a9.67 9.67 0 0 1 8.66 5.38l14.67 29.58a12.1 12.1 0 0 1 0 10.76l-14.66 29.58a9.67 9.67 0 0 1-8.67 5.38h-48a9.67 9.67 0 0 1-8.66-5.38l-14.67-29.58a12.1 12.1 0 0 1 0-10.76z" stroke="#635dff" fill="#fff"/><use xlink:href="#k" transform="matrix(1,0,0,1,1355,1205) translate(31.424753086419756 39.96527777777778)"/><path d="M1997.34 945.38A9.67 9.67 0 0 1 2006 940h48a9.67 9.67 0 0 1 8.66 5.38l14.68 29.58a12.1 12.1 0 0 1 0 10.76l-14.68 29.58a9.67 9.67 0 0 1-8.66 5.38h-48a9.67 9.67 0 0 1-8.66-5.38l-14.67-29.58a12.1 12.1 0 0 1 0-10.76z" stroke="#635dff" fill="#fff"/><use xlink:href="#q" transform="matrix(1,0,0,1,1985,945) translate(31.424753086419756 39.96527777777778)"/><path d="M980 1058.7a6.7 6.7 0 0 1 5.96-6.65l108.08-12.06a5.37 5.37 0 0 1 5.96 5.32V1114a6 6 0 0 1-6 6H986a6 6 0 0 1-6-6z" stroke="#000" fill="#fff"/><use xlink:href="#s" transform="matrix(1,0,0,1,985,1057.7666999857483) translate(42.0679012345679 32.27777777777778)"/><path d="M2400 979.4a6.7 6.7 0 0 1 5.96-6.67l108.08-12.06A5.37 5.37 0 0 1 2520 966v68.68a6 6 0 0 1-6 6h-108a6 6 0 0 1-6-6z" stroke="#000" fill="#fff"/><use xlink:href="#t" transform="matrix(1,0,0,1,2405,978.4466600028504) translate(35.89506172839506 32.27777777777778)"/><path d="M1860 1105.07a6.7 6.7 0 0 1 5.96-6.66l108.08-12.06a5.37 5.37 0 0 1 5.96 5.34v68.68a6 6 0 0 1-6 6h-108a6 6 0 0 1-6-6z" stroke="#000" fill="#fff"/><use xlink:href="#u" transform="matrix(1,0,0,1,1865,1104.125893576002) translate(42.0679012345679 32.27777777777778)"/><path d="M2208.84 859.4a6.7 6.7 0 0 1 5.96-6.67l108.07-12.06a5.37 5.37 0 0 1 5.97 5.33v68.68a6 6 0 0 1-6 6h-108a6 6 0 0 1-6-6z" stroke="#000" fill="#fff"/><use xlink:href="#v" transform="matrix(1,0,0,1,2213.837309682834,858.4466600028503) translate(36.72839506172839 32.27777777777778)"/><path d="M1019 120H246a6 6 0 0 0-6 6v217.12" stroke="#3a414a" fill="none"/><path d="M1019.5 120l.02.5h-.53v-1h.53z" stroke="#3a414a" stroke-width=".05" fill="#3a414a"/><path d="M240 357.88l-4.63-14.26h9.26z" stroke="#3a414a" fill="#3a414a"/><path d="M1101 120h773a6 6 0 0 1 6 6v217.12" stroke="#3a414a" fill="none"/><path d="M1101 120.5h-.53l.03-.5-.02-.5h.53z" stroke="#3a414a" stroke-width=".05" fill="#3a414a"/><path d="M1880 357.88l-4.63-14.26h9.27z" stroke="#3a414a" fill="#3a414a"/><path d="M281 400h94.25a6 6 0 0 1 6 6v93.5" stroke="#3a414a" fill="none"/><path d="M281 400.5h-.53l.03-.5-.02-.5h.53z" stroke="#3a414a" stroke-width=".05" fill="#3a414a"/><path d="M381.25 514.27L376.6 500h9.28z" stroke="#3a414a" fill="#3a414a"/><path d="M199 400H66a6 6 0 0 0-6 6v103.5" stroke="#3a414a" fill="none"/><path d="M199.5 400l.02.5H199v-1h.53z" stroke="#3a414a" stroke-width=".05" fill="#3a414a"/><path d="M60 524.28L55.37 510h9.27z" stroke="#3a414a" fill="#3a414a"/><path d="M439.38 556.73H534a6 6 0 0 1 6 6v100.4" stroke="#3a414a" fill="none"/><path d="M439.4 557.23h-.55l.03-.5-.03-.5h.54z" stroke="#3a414a" stroke-width=".05" fill="#3a414a"/><path d="M540 677.88l-4.63-14.26h9.26z" stroke="#3a414a" fill="#3a414a"/><path d="M323.1 556.73H219.4a6 6 0 0 0-6 6v107.8" stroke="#3a414a" fill="none"/><path d="M323.6 556.73l.03.5h-.53v-1h.53z" stroke="#3a414a" stroke-width=".05" fill="#3a414a"/><path d="M213.4 685.3l-4.63-14.25h9.27z" stroke="#3a414a" fill="#3a414a"/><path d="M499 720h-73a6 6 0 0 0-6 6v103.8" stroke="#3a414a" fill="none"/><path d="M499.5 720l.02.5H499v-1h.53z" stroke="#3a414a" stroke-width=".05" fill="#3a414a"/><path d="M420 844.58l-4.63-14.27h9.26z" stroke="#3a414a" fill="#3a414a"/><path d="M581 720h43a6 6 0 0 1 6 6v97.12" stroke="#3a414a" fill="none"/><path d="M581 720.5h-.53l.03-.5-.02-.5h.53z" stroke="#3a414a" stroke-width=".05" fill="#3a414a"/><path d="M630 837.88l-4.63-14.26h9.26z" stroke="#3a414a" fill="#3a414a"/><path d="M679.6 880.34H734a6 6 0 0 1 6 6v142.8" stroke="#3a414a" fill="none"/><path d="M679.6 880.84h-.53l.02-.5-.03-.5h.54z" stroke="#3a414a" stroke-width=".05" fill="#3a414a"/><path d="M740 1043.9l-4.63-14.27h9.26z" stroke="#3a414a" fill="#3a414a"/><path d="M580.4 880.34H506a6 6 0 0 0-6 6v142.8" stroke="#3a414a" fill="none"/><path d="M580.9 880.34l.03.5h-.54v-1h.53z" stroke="#3a414a" stroke-width=".05" fill="#3a414a"/><path d="M500 1043.9l-4.63-14.27h9.26z" stroke="#3a414a" fill="#3a414a"/><path d="M1839 400h-634.24a6 6 0 0 0-6 6v96.78" stroke="#3a414a" fill="none"/><path d="M1839.5 400l.02.5h-.53v-1h.53z" stroke="#3a414a" stroke-width=".05" fill="#3a414a"/><path d="M1198.76 517.54l-4.64-14.26h9.27z" stroke="#3a414a" fill="#3a414a"/><path d="M1921 400h653a6 6 0 0 1 6 6v97.46" stroke="#3a414a" fill="none"/><path d="M1921 400.5h-.53l.03-.5-.02-.5h.53z" stroke="#3a414a" stroke-width=".05" fill="#3a414a"/><path d="M2580 518.22l-4.64-14.26h9.28z" stroke="#3a414a" fill="#3a414a"/><path d="M1140.62 560H1046a6 6 0 0 0-6 6v103.47" stroke="#3a414a" fill="none"/><path d="M1141.12 560l.03.5h-.54v-1h.55z" stroke="#3a414a" stroke-width=".05" fill="#3a414a"/><path d="M1040 684.24l-4.63-14.27h9.27z" stroke="#3a414a" fill="#3a414a"/><path d="M1256.9 560H1434a6 6 0 0 1 6 6v97.12" stroke="#3a414a" fill="none"/><path d="M1256.9 560.5h-.54l.03-.5-.04-.5h.54z" stroke="#3a414a" stroke-width=".05" fill="#3a414a"/><path d="M1440 677.88l-4.63-14.26h9.27z" stroke="#3a414a" fill="#3a414a"/><path d="M1399 720h-203a6 6 0 0 0-6 6v97.12" stroke="#3a414a" fill="none"/><path d="M1399.5 720l.02.5h-.53v-1h.53z" stroke="#3a414a" stroke-width=".05" fill="#3a414a"/><path d="M1190 837.88l-4.63-14.26h9.27z" stroke="#3a414a" fill="#3a414a"/><path d="M1481 720h293a6 6 0 0 1 6 6v77.12" stroke="#3a414a" fill="none"/><path d="M1481 720.5h-.53l.03-.5-.02-.5h.53z" stroke="#3a414a" stroke-width=".05" fill="#3a414a"/><path d="M1780 817.88l-4.63-14.26h9.27z" stroke="#3a414a" fill="#3a414a"/><path d="M1337.5 1080c0 22.1-17.9 40-40 40-22.08 0-40-17.9-40-40s17.92-40 40-40c22.1 0 40 17.9 40 40z" stroke="#fc9432" fill="#fff"/><use xlink:href="#e" transform="matrix(1,0,0,1,1262.5107533505711,1045) translate(21.419753086419753 39.65277777777778)"/><path d="M1140.4 880.34H1046a6 6 0 0 0-6 6v142.8" stroke="#3a414a" fill="none"/><path d="M1140.9 880.34l.03.5h-.54v-1h.53z" stroke="#3a414a" stroke-width=".05" fill="#3a414a"/><path d="M1040 1043.9l-4.63-14.27h9.27z" stroke="#3a414a" fill="#3a414a"/><path d="M1239.6 880.34h51.9a6 6 0 0 1 6 6v136.78" stroke="#3a414a" fill="none"/><path d="M1239.6 880.84h-.53l.03-.5-.03-.5h.54z" stroke="#3a414a" stroke-width=".05" fill="#3a414a"/><path d="M1297.5 1037.88l-4.63-14.26h9.28z" stroke="#3a414a" fill="#3a414a"/><path d="M1256.5 1080H1155.3a6 6 0 0 0-6 6v105" stroke="#3a414a" fill="none"/><path d="M1257 1080l.03.5h-.53v-1h.54z" stroke="#3a414a" stroke-width=".05" fill="#3a414a"/><path d="M1149.28 1205.77l-4.63-14.26h9.27z" stroke="#3a414a" fill="#3a414a"/><path d="M1338.5 1080h55.5a6 6 0 0 1 6 6v97.12" stroke="#3a414a" fill="none"/><path d="M1338.52 1080.5h-.54l.03-.5v-.5h.52z" stroke="#3a414a" stroke-width=".05" fill="#3a414a"/><path d="M1400 1197.88l-4.63-14.26h9.27z" stroke="#3a414a" fill="#3a414a"/><path d="M1449.6 1240.34h54.4a6 6 0 0 1 6 6v83.47" stroke="#3a414a" fill="none"/><path d="M1449.6 1240.84h-.53l.03-.5-.03-.5h.54z" stroke="#3a414a" stroke-width=".05" fill="#3a414a"/><path d="M1510 1344.58l-4.63-14.27h9.27z" stroke="#3a414a" fill="#3a414a"/><path d="M1350.4 1240.34H1306a6 6 0 0 0-6 6v83.47" stroke="#3a414a" fill="none"/><path d="M1350.9 1240.34l.03.5h-.54v-1h.53z" stroke="#3a414a" stroke-width=".05" fill="#3a414a"/><path d="M1300 1344.58l-4.63-14.27h9.27z" stroke="#3a414a" fill="#3a414a"/><path d="M1450 1099.05a6.7 6.7 0 0 1 5.96-6.66l108.08-12.07a5.37 5.37 0 0 1 5.96 5.33v68.68a6 6 0 0 1-6 6h-108a6 6 0 0 1-6-6z" stroke="#000" fill="#fff"/><use xlink:href="#w" transform="matrix(1,0,0,1,1455,1098.1066799942994) translate(42.0679012345679 32.27777777777778)"/><path d="M1700 1100.07a6.7 6.7 0 0 1 5.96-6.66l108.08-12.06a5.37 5.37 0 0 1 5.96 5.34v68.68a6 6 0 0 1-6 6h-108a6 6 0 0 1-6-6z" stroke="#000" fill="#fff"/><use xlink:href="#o" transform="matrix(1,0,0,1,1705,1099.1266200199525) translate(42.0679012345679 32.27777777777778)"/><path d="M1597.34 945.38A9.67 9.67 0 0 1 1606 940h48a9.67 9.67 0 0 1 8.66 5.38l14.67 29.58a12.1 12.1 0 0 1 0 10.76l-14.66 29.58a9.67 9.67 0 0 1-8.67 5.38h-48a9.67 9.67 0 0 1-8.66-5.38l-14.67-29.58a12.1 12.1 0 0 1 0-10.76z" stroke="#635dff" fill="#fff"/><use xlink:href="#k" transform="matrix(1,0,0,1,1585,945) translate(31.424753086419756 39.96527777777778)"/><path d="M1679.6 980.34h74.4a6 6 0 0 1 6 6v84.15" stroke="#3a414a" fill="none"/><path d="M1679.6 980.84h-.53l.03-.5-.03-.5h.54z" stroke="#3a414a" stroke-width=".05" fill="#3a414a"/><path d="M1760 1085.26l-4.63-14.27h9.27z" stroke="#3a414a" fill="#3a414a"/><path d="M1580.4 980.34H1516a6 6 0 0 0-6 6v83.13" stroke="#3a414a" fill="none"/><path d="M1580.9 980.34l.03.5h-.54v-1h.53z" stroke="#3a414a" stroke-width=".05" fill="#3a414a"/><path d="M1510 1084.23l-4.63-14.26h9.27z" stroke="#3a414a" fill="#3a414a"/><path d="M1739 860h-103a6 6 0 0 0-6 6v57.12" stroke="#3a414a" fill="none"/><path d="M1739.5 860l.02.5h-.53v-1h.53z" stroke="#3a414a" stroke-width=".05" fill="#3a414a"/><path d="M1630 937.88l-4.63-14.26h9.27z" stroke="#3a414a" fill="#3a414a"/><path d="M1821 860h203a6 6 0 0 1 6 6v57.12" stroke="#3a414a" fill="none"/><path d="M1821 860.5h-.53l.03-.5-.02-.5h.53z" stroke="#3a414a" stroke-width=".05" fill="#3a414a"/><path d="M2030 937.88l-4.63-14.26h9.27z" stroke="#3a414a" fill="#3a414a"/><path d="M2217.34 1085.04a9.67 9.67 0 0 1 8.66-5.38h48a9.67 9.67 0 0 1 8.66 5.38l14.68 29.58a12.1 12.1 0 0 1 0 10.76l-14.68 29.58a9.67 9.67 0 0 1-8.66 5.38h-48a9.67 9.67 0 0 1-8.66-5.38l-14.68-29.58a12.1 12.1 0 0 1 0-10.76z" stroke="#635dff" fill="#fff"/><use xlink:href="#k" transform="matrix(1,0,0,1,2205,1084.6600199914487) translate(31.424753086419756 39.96527777777778)"/><path d="M2318.84 1219.4a6.7 6.7 0 0 1 5.96-6.67l108.07-12.06a5.37 5.37 0 0 1 5.97 5.33v68.68a6 6 0 0 1-6 6h-108a6 6 0 0 1-6-6z" stroke="#000" fill="#fff"/><use xlink:href="#o" transform="matrix(1,0,0,1,2323.837309682834,1218.4466600028504) translate(42.0679012345679 32.27777777777778)"/><path d="M2080 1219.4a6.7 6.7 0 0 1 5.96-6.67l108.08-12.06a5.37 5.37 0 0 1 5.96 5.33v68.68a6 6 0 0 1-6 6h-108a6 6 0 0 1-6-6z" stroke="#000" fill="#fff"/><use xlink:href="#t" transform="matrix(1,0,0,1,2085,1218.4466600028506) translate(35.89506172839506 32.27777777777778)"/><path d="M1980.4 980.34H1926a6 6 0 0 0-6 6v89.15" stroke="#3a414a" fill="none"/><path d="M1980.9 980.34l.03.5h-.54v-1h.53z" stroke="#3a414a" stroke-width=".05" fill="#3a414a"/><path d="M1920 1090.26l-4.63-14.27h9.27z" stroke="#3a414a" fill="#3a414a"/><path d="M2079.6 980.34H2244a6 6 0 0 1 6 6v76.44" stroke="#3a414a" fill="none"/><path d="M2079.6 980.84h-.53l.02-.5-.03-.5h.54z" stroke="#3a414a" stroke-width=".05" fill="#3a414a"/><path d="M2250 1077.54l-4.64-14.26h9.28z" stroke="#3a414a" fill="#3a414a"/><path d="M2200.4 1120H2146a6 6 0 0 0-6 6v63.8" stroke="#3a414a" fill="none"/><path d="M2200.9 1120l.03.5h-.54v-1h.53z" stroke="#3a414a" stroke-width=".05" fill="#3a414a"/><path d="M2140 1204.58l-4.64-14.27h9.28z" stroke="#3a414a" fill="#3a414a"/><path d="M2299.6 1120h79.04a6 6 0 0 1 6 6v63.16" stroke="#3a414a" fill="none"/><path d="M2299.6 1120.5h-.53l.02-.5-.03-.5h.54z" stroke="#3a414a" stroke-width=".05" fill="#3a414a"/><path d="M2384.64 1203.93l-4.63-14.27h9.28z" stroke="#3a414a" fill="#3a414a"/><path d="M2620 979.4a6.7 6.7 0 0 1 5.96-6.67l108.08-12.06A5.37 5.37 0 0 1 2740 966v68.68a6 6 0 0 1-6 6h-108a6 6 0 0 1-6-6z" stroke="#000" fill="#fff"/><use xlink:href="#o" transform="matrix(1,0,0,1,2625,978.4466600028504) translate(42.0679012345679 32.27777777777778)"/><path d="M2360.4 720.34h-85.56a6 6 0 0 0-6 6V829.8" stroke="#3a414a" fill="none"/><path d="M2360.9 720.34l.03.5h-.54v-1h.53z" stroke="#3a414a" stroke-width=".05" fill="#3a414a"/><path d="M2268.84 844.58l-4.64-14.27h9.27z" stroke="#3a414a" fill="#3a414a"/><path d="M2459.6 720.34H2564a6 6 0 0 1 6 6v76.78" stroke="#3a414a" fill="none"/><path d="M2459.6 720.84h-.53l.02-.5-.03-.5h.54z" stroke="#3a414a" stroke-width=".05" fill="#3a414a"/><path d="M2570 817.88l-4.64-14.26h9.28z" stroke="#3a414a" fill="#3a414a"/><path d="M2520.4 860.34H2466a6 6 0 0 0-6 6v83.47" stroke="#3a414a" fill="none"/><path d="M2520.9 860.34l.03.5h-.54v-1h.53z" stroke="#3a414a" stroke-width=".05" fill="#3a414a"/><path d="M2460 964.58l-4.64-14.27h9.28z" stroke="#3a414a" fill="#3a414a"/><path d="M2619.6 860.34h54.4a6 6 0 0 1 6 6v83.47" stroke="#3a414a" fill="none"/><path d="M2619.6 860.84h-.53l.02-.5-.03-.5h.54z" stroke="#3a414a" stroke-width=".05" fill="#3a414a"/><path d="M2680 964.58l-4.64-14.27h9.28z" stroke="#3a414a" fill="#3a414a"/><path d="M2539 560.34h-123a6 6 0 0 0-6 6v96.78" stroke="#3a414a" fill="none"/><path d="M2539.5 560.33l.02.5h-.53v-1h.53z" stroke="#3a414a" stroke-width=".05" fill="#3a414a"/><path d="M2410 677.88l-4.64-14.26h9.28z" stroke="#3a414a" fill="#3a414a"/><path d="M2621 560.34h153a6 6 0 0 1 6 6v102.8" stroke="#3a414a" fill="none"/><path d="M2621 560.84h-.53l.03-.5-.02-.5h.53z" stroke="#3a414a" stroke-width=".05" fill="#3a414a"/><path d="M2780 683.9l-4.64-14.27h9.28z" stroke="#3a414a" fill="#3a414a"/><defs><path fill="#3a414a" d="M30-248c87 1 191-15 191 75 0 78-77 80-158 76V0H30v-248zm33 125c57 0 124 11 124-50 0-59-68-47-124-48v98" id="x"/><path fill="#3a414a" d="M27 0v-27h64v-190l-56 39v-29l58-41h29v221h61V0H27" id="y"/><g id="a"><use transform="matrix(0.06172839506172839,0,0,0.06172839506172839,0,0)" xlink:href="#x"/><use transform="matrix(0.06172839506172839,0,0,0.06172839506172839,14.814814814814813,0)" xlink:href="#y"/></g><path fill="#3a414a" d="M140-251c81 0 123 46 123 126C263-53 228-8 163 1c7 30 30 48 69 40v23c-55 16-95-15-103-61C56-3 17-48 17-125c0-80 42-126 123-126zm0 227c63 0 89-41 89-101s-29-99-89-99c-61 0-89 39-89 99S79-25 140-24" id="z"/><g id="b"><use transform="matrix(0.06172839506172839,0,0,0.06172839506172839,0,0)" xlink:href="#z"/><use transform="matrix(0.06172839506172839,0,0,0.06172839506172839,17.28395061728395,0)" xlink:href="#y"/></g><path fill="#3a414a" d="M101-251c82-7 93 87 43 132L82-64C71-53 59-42 53-27h129V0H18c2-99 128-94 128-182 0-28-16-43-45-43s-46 15-49 41l-32-3c6-41 34-60 81-64" id="A"/><g id="c"><use transform="matrix(0.06172839506172839,0,0,0.06172839506172839,0,0)" xlink:href="#z"/><use transform="matrix(0.06172839506172839,0,0,0.06172839506172839,17.28395061728395,0)" xlink:href="#A"/></g><path fill="#3a414a" d="M126-127c33 6 58 20 58 59 0 88-139 92-164 29-3-8-5-16-6-25l32-3c6 27 21 44 54 44 32 0 52-15 52-46 0-38-36-46-79-43v-28c39 1 72-4 72-42 0-27-17-43-46-43-28 0-47 15-49 41l-32-3c6-42 35-63 81-64 48-1 79 21 79 65 0 36-21 52-52 59" id="B"/><g id="d"><use transform="matrix(0.06172839506172839,0,0,0.06172839506172839,0,0)" xlink:href="#x"/><use transform="matrix(0.06172839506172839,0,0,0.06172839506172839,14.814814814814813,0)" xlink:href="#B"/></g><path fill="#3a414a" d="M155-56V0h-30v-56H8v-25l114-167h33v167h35v25h-35zm-30-156c-27 46-58 90-88 131h88v-131" id="C"/><g id="e"><use transform="matrix(0.06172839506172839,0,0,0.06172839506172839,0,0)" xlink:href="#x"/><use transform="matrix(0.06172839506172839,0,0,0.06172839506172839,14.814814814814813,0)" xlink:href="#C"/></g><g id="f"><use transform="matrix(0.06172839506172839,0,0,0.06172839506172839,0,0)" xlink:href="#x"/><use transform="matrix(0.06172839506172839,0,0,0.06172839506172839,14.814814814814813,0)" xlink:href="#A"/></g><g id="g"><use transform="matrix(0.06172839506172839,0,0,0.06172839506172839,0,0)" xlink:href="#z"/><use transform="matrix(0.06172839506172839,0,0,0.06172839506172839,17.28395061728395,0)" xlink:href="#B"/></g><path fill="#3a414a" d="M127-220V0H93v-220H8v-28h204v28h-85" id="D"/><g id="h"><use transform="matrix(0.06172839506172839,0,0,0.06172839506172839,0,0)" xlink:href="#D"/><use transform="matrix(0.06172839506172839,0,0,0.06172839506172839,13.518518518518517,0)" xlink:href="#y"/></g><path fill="#3a414a" d="M185-189c-5-48-123-54-124 2 14 75 158 14 163 119 3 78-121 87-175 55-17-10-28-26-33-46l33-7c5 56 141 63 141-1 0-78-155-14-162-118-5-82 145-84 179-34 5 7 8 16 11 25" id="E"/><g id="i"><use transform="matrix(0.06172839506172839,0,0,0.06172839506172839,0,0)" xlink:href="#E"/><use transform="matrix(0.06172839506172839,0,0,0.06172839506172839,14.814814814814813,0)" xlink:href="#y"/></g><g id="j"><use transform="matrix(0.06172839506172839,0,0,0.06172839506172839,0,0)" xlink:href="#D"/><use transform="matrix(0.06172839506172839,0,0,0.06172839506172839,13.518518518518517,0)" xlink:href="#A"/></g><g id="k"><use transform="matrix(0.06172839506172839,0,0,0.06172839506172839,0,0)" xlink:href="#E"/><use transform="matrix(0.06172839506172839,0,0,0.06172839506172839,14.814814814814813,0)" xlink:href="#C"/></g><g id="l"><use transform="matrix(0.06172839506172839,0,0,0.06172839506172839,0,0)" xlink:href="#D"/><use transform="matrix(0.06172839506172839,0,0,0.06172839506172839,13.518518518518517,0)" xlink:href="#C"/></g><g id="m"><use transform="matrix(0.06172839506172839,0,0,0.06172839506172839,0,0)" xlink:href="#D"/><use transform="matrix(0.06172839506172839,0,0,0.06172839506172839,13.518518518518517,0)" xlink:href="#B"/></g><g id="n"><use transform="matrix(0.06172839506172839,0,0,0.06172839506172839,0,0)" xlink:href="#E"/><use transform="matrix(0.06172839506172839,0,0,0.06172839506172839,14.814814814814813,0)" xlink:href="#A"/></g><path fill="#3a414a" d="M54-142c48-35 137-8 131 61C196 18 31 33 14-55l32-4c7 23 22 37 52 37 35-1 51-22 54-58 4-55-73-65-99-34H22l8-134h141v27H59" id="F"/><g id="o"><use transform="matrix(0.06172839506172839,0,0,0.06172839506172839,0,0)" xlink:href="#D"/><use transform="matrix(0.06172839506172839,0,0,0.06172839506172839,13.518518518518517,0)" xlink:href="#F"/></g><path fill="#3a414a" d="M110-160c48 1 74 30 74 79 0 53-28 85-80 85-65 0-83-55-86-122-5-90 50-162 133-122 14 7 22 21 27 39l-31 6c-5-40-67-38-82-6-9 19-15 44-15 74 11-20 30-34 60-33zm-7 138c34 0 49-23 49-58s-16-56-50-56c-29 0-50 16-49 49 1 36 15 65 50 65" id="G"/><g id="p"><use transform="matrix(0.06172839506172839,0,0,0.06172839506172839,0,0)" xlink:href="#D"/><use transform="matrix(0.06172839506172839,0,0,0.06172839506172839,13.518518518518517,0)" xlink:href="#G"/></g><g id="q"><use transform="matrix(0.06172839506172839,0,0,0.06172839506172839,0,0)" xlink:href="#E"/><use transform="matrix(0.06172839506172839,0,0,0.06172839506172839,14.814814814814813,0)" xlink:href="#B"/></g><g id="r"><use transform="matrix(0.06172839506172839,0,0,0.06172839506172839,0,0)" xlink:href="#D"/><use transform="matrix(0.06172839506172839,0,0,0.06172839506172839,13.518518518518517,0)" xlink:href="#y"/><use transform="matrix(0.06172839506172839,0,0,0.06172839506172839,25.864197530864196,0)" xlink:href="#A"/></g><path fill="#3a414a" d="M64 0c3-98 48-159 88-221H18v-27h164v26C143-157 98-101 97 0H64" id="H"/><g id="s"><use transform="matrix(0.06172839506172839,0,0,0.06172839506172839,0,0)" xlink:href="#D"/><use transform="matrix(0.06172839506172839,0,0,0.06172839506172839,13.518518518518517,0)" xlink:href="#H"/></g><path fill="#3a414a" d="M101-251c68 0 85 55 85 127S166 4 100 4C33 4 14-52 14-124c0-73 17-127 87-127zm-1 229c47 0 54-49 54-102s-4-102-53-102c-51 0-55 48-55 102 0 53 5 102 54 102" id="I"/><g id="t"><use transform="matrix(0.06172839506172839,0,0,0.06172839506172839,0,0)" xlink:href="#D"/><use transform="matrix(0.06172839506172839,0,0,0.06172839506172839,13.518518518518517,0)" xlink:href="#y"/><use transform="matrix(0.06172839506172839,0,0,0.06172839506172839,25.864197530864196,0)" xlink:href="#I"/></g><path fill="#3a414a" d="M99-251c64 0 84 50 84 122C183-37 130 33 47-8c-14-7-20-23-25-40l30-5c6 39 69 39 84 7 9-19 16-44 16-74-10 22-31 35-62 35-49 0-73-33-73-83 0-54 28-83 82-83zm-1 141c31-1 51-18 51-49 0-36-14-67-51-67-34 0-49 23-49 58 0 34 15 58 49 58" id="J"/><g id="u"><use transform="matrix(0.06172839506172839,0,0,0.06172839506172839,0,0)" xlink:href="#D"/><use transform="matrix(0.06172839506172839,0,0,0.06172839506172839,13.518518518518517,0)" xlink:href="#J"/></g><g id="v"><use transform="matrix(0.06172839506172839,0,0,0.06172839506172839,0,0)" xlink:href="#D"/><use transform="matrix(0.06172839506172839,0,0,0.06172839506172839,13.518518518518517,0)" xlink:href="#y"/><use transform="matrix(0.06172839506172839,0,0,0.06172839506172839,24.19753086419753,0)" xlink:href="#y"/></g><path fill="#3a414a" d="M134-131c28 9 52 24 51 62-1 50-34 73-85 73S17-19 16-69c0-36 21-54 49-61-75-25-45-126 34-121 46 3 78 18 79 63 0 33-17 51-44 57zm-34-11c31 1 46-15 46-44 0-28-17-43-47-42-29 0-46 13-45 42 1 28 16 44 46 44zm1 122c35 0 51-18 51-52 0-30-18-46-53-46-33 0-51 17-51 47 0 34 19 51 53 51" id="K"/><g id="w"><use transform="matrix(0.06172839506172839,0,0,0.06172839506172839,0,0)" xlink:href="#D"/><use transform="matrix(0.06172839506172839,0,0,0.06172839506172839,13.518518518518517,0)" xlink:href="#K"/></g></defs></g></svg>